<?xml version="1.0" encoding="UTF-8"?>
<svg id="logosandtypes_com" data-name="logosandtypes com" xmlns="http://www.w3.org/2000/svg" viewBox="0 0 150 150">
  <defs>
    <style>
      .cls-1 {
        fill: #121117;
        fill-rule: evenodd;
      }

      .cls-2 {
        fill: none;
      }
    </style>
  </defs>
  <path class="cls-2" d="M0,0H150V150H0V0Z"/>
  <path class="cls-1" d="M119.03,42.69L69.19,12.31c-16.05-9.78-36.66,1.74-36.66,20.49V118.23c0,17.05,10.05,25.85,22.95,25.85,12.1,0,22.02-9.35,22.89-21.19,11.83-1.24,21.6-11.2,21.06-24.7l21.72-13.24c7.68-4.68,11.53-12.58,11.53-20.49s-2.7-15.73-13.65-21.79h0Zm-63.54,87.81c-5.14,0-9.3-4.15-9.3-9.27s4.16-9.27,9.3-9.27,9.3,4.15,9.3,9.27-4.17,9.27-9.3,9.27Zm30.29-30.92c0,3.5-2.26,9.85-10.63,9.85-.95-1.56-2.08-3.02-3.36-4.31-1.29-1.29-2.73-2.43-4.29-3.4-3.5-2.15-7.61-3.38-12.02-3.38-3.03,0-5.93,.59-8.58,1.65-.23,.09-.5,.2-.72,.31v-20.49c0-5.44,4.42-9.85,9.88-9.85h19.83c5.46,0,9.88,4.41,9.88,9.85v19.77h0Zm28.25-26.21l-14.6,8.9v-2.47c0-12.96-10.54-23.46-23.53-23.46h-19.83c-3.52,0-6.87,.77-9.88,2.17v-25.69c0-8.13,8.92-13.12,15.88-8.88l51.97,31.67c6.66,4.06,6.66,13.7,0,17.76h0Z"/>
</svg>